# xmcd
#
# Track frame offsets:
#	150
#	19462
#	36445
#	54150
#	69235
#	84830
#	97517
#	112132
#	128422
#	145160
#	163037
#	176265
#
# Disc length: 2540 seconds
#
# Revision: 0
# Processed by: cddbd v1.4b42PL0 Copyright (c) Steve Scherf et al.
# Submitted via: audiograbber 1.80
#
DISCID=8d09ea0c
DTITLE=Bill Kleoppel - Bill Kleoppel
DYEAR=1900
DGENRE=
TTITLE0=Wide Open Spaces
TTITLE1=Eyes of Green
TTITLE2=Back in 1953
TTITLE3=Too Much Goin' On
TTITLE4=Driving The Cowgirls Wild
TTITLE5=Someplace She'd Rather Be
TTITLE6=Two Old Pals
TTITLE7=How Will I Know
TTITLE8=If Your Planning On Leaving
TTITLE9=Sails
TTITLE10=My Queen Is In His King-Size Bed
TTITLE11=No Preasure
EXTD=
EXTT0=
EXTT1=
EXTT2=
EXTT3=
EXTT4=
EXTT5=
EXTT6=
EXTT7=
EXTT8=
EXTT9=
EXTT10=
EXTT11=
PLAYORDER=
